PathFileType  4	(X/Y/Z) C:\Users\antoi\Documents\MyRepositories\mobilecap\ResultsAnalysis
DataRate	CameraRate	NumFrames	NumMarkers	Units	OrigDataRate	OrigDataStartFrame	OrigNumFrames
100.0	100.0	6	51	mm	100.0	128	170
Frame#	Time	r_knee			r_shank_antsup			r_ankle			r_calc			r_5meta			r_toe			L_knee			L_shank_antsup			L_ankle			L_calc			L_5meta			L_toe			r_sh2			r_sh3			r_sh4			L_sh2			L_sh3			r_thigh1			r_thigh2			r_thigh3			r_thigh4			r_thigh5			L_thigh1			L_thigh2			L_thigh3			L_thigh4			r.ASIS			r.PSIS			L.ASIS			L.PSIS			C7			R_Shoulder			L_Shoulder			R_Sternum			L_Sternum			R_humerus			R_elbow_med			R_elbow_lat			R_forearm			R_wrist_radius			R_wrist_ulna			L_humerus			L_elbow_med			L_elbow_lat			L_forearm			L_wrist_radius			L_wrist_ulna			R_HJC			L_HJC			R_HJC_reg			L_HJC_reg			
		X1	Y1	Z1	X2	Y2	Z2	X3	Y3	Z3	X4	Y4	Z4	X5	Y5	Z5	X6	Y6	Z6	X7	Y7	Z7	X8	Y8	Z8	X9	Y9	Z9	X10	Y10	Z10	X11	Y11	Z11	X12	Y12	Z12	X13	Y13	Z13	X14	Y14	Z14	X15	Y15	Z15	X16	Y16	Z16	X17	Y17	Z17	X18	Y18	Z18	X19	Y19	Z19	X20	Y20	Z20	X21	Y21	Z21	X22	Y22	Z22	X23	Y23	Z23	X24	Y24	Z24	X25	Y25	Z25	X26	Y26	Z26	X27	Y27	Z27	X28	Y28	Z28	X29	Y29	Z29	X30	Y30	Z30	X31	Y31	Z31	X32	Y32	Z32	X33	Y33	Z33	X34	Y34	Z34	X35	Y35	Z35	X36	Y36	Z36	X37	Y37	Z37	X38	Y38	Z38	X39	Y39	Z39	X40	Y40	Z40	X41	Y41	Z41	X42	Y42	Z42	X43	Y43	Z43	X44	Y44	Z44	X45	Y45	Z45	X46	Y46	Z46	X47	Y47	Z47	X48	Y48	Z48	X49	Y49	Z49	X50	Y50	Z50	X51	Y51	Z51	

128	1.27000000	1158.26001	509.68320	-57.39860	1206.14725	471.93959	-65.62261	1166.83099	107.23523	-99.43550	1118.92272	64.74673	-153.70570	1317.17454	60.77459	-52.21083	1341.38893	94.70559	-104.85457	940.77015	486.08890	-371.72408	945.96822	395.58024	-381.77806	797.53846	105.54043	-337.85306	726.79643	73.40880	-289.97903	908.72785	39.60354	-359.50565	953.31371	55.65816	-305.19502	1213.80632	358.46647	-80.16336	1135.90059	460.94756	-32.71993	1142.48129	345.13608	-33.22108	864.31279	430.55188	-395.94629	824.71183	315.65414	-391.27244	1122.14302	808.78025	-110.03903	1173.22113	710.44933	-101.25345	1165.30017	684.72121	-37.17143	1061.03443	782.02520	-19.17420	1113.55019	680.64361	-12.54992	1043.23748	798.51334	-383.37715	1023.18094	659.49978	-389.11590	931.90410	814.14824	-392.23938	908.60213	679.82537	-376.49685	1072.85102	952.60954	-89.37084	887.76021	990.53973	-163.48370	1090.69790	932.14634	-323.22401	894.00891	990.89284	-261.19467	959.27817	1441.12531	-323.46689	1032.53175	1438.43785	-154.96044	1015.72392	1336.96221	-464.57468	1063.80594	1343.97791	-283.80930	1064.43775	1330.89038	-319.65996	1021.29111	1223.23314	-20.93298	945.83092	1140.96354	-16.55959	991.02321	1145.18203	25.49964	1044.75852	1011.66707	43.45508	1069.31412	908.05452	34.38019	1047.46732	912.87270	73.46912	1053.99341	1100.49650	-499.30035	1025.80235	997.18139	-442.21736	1050.85685	996.05948	-494.98802	1162.11607	902.78783	-486.45441	1240.89669	838.65350	-447.06598	1212.72172	807.56823	-465.94019	999.44955	871.92144	-118.49748	994.09294	870.76947	-309.09056	1004.51629	873.27558	-126.32282	1014.43341	873.83563	-281.38626	
129	1.28000000	1167.11605	508.64880	-56.91955	1215.97912	472.69103	-65.23299	1192.05802	106.35949	-98.84668	1145.49487	62.65067	-152.70672	1343.89357	65.90797	-51.41142	1366.87894	100.49670	-103.79352	944.21364	486.20483	-372.30992	948.59673	395.65807	-382.43966	798.18348	106.43186	-338.14288	727.21790	74.88412	-290.21528	908.78692	39.59532	-359.68669	953.41032	55.27193	-305.39504	1228.25655	359.56970	-79.44941	1146.21485	458.98405	-32.11704	1157.53377	343.55713	-32.49584	867.11531	431.26364	-396.33235	826.65787	316.61034	-391.63040	1130.62964	807.05987	-109.98195	1181.44047	708.59068	-100.90104	1173.52697	683.18670	-36.74339	1069.61897	780.92958	-19.03808	1121.74878	679.37404	-12.07849	1050.55832	797.51015	-383.81275	1028.84345	658.77263	-389.39408	939.03609	814.56481	-392.39770	914.52741	680.29994	-376.66276	1082.02460	951.39915	-89.37414	896.80794	989.45914	-163.41130	1099.41366	931.30104	-323.55831	902.88320	989.96573	-261.12688	968.14030	1441.07143	-320.42842	1040.54039	1437.23188	-151.77707	1024.99373	1338.16280	-462.18015	1072.53930	1343.67404	-281.25025	1073.26733	1330.86218	-317.16437	1028.63021	1221.10223	-19.33501	953.31412	1138.60992	-16.32132	998.13528	1142.58952	26.15313	1052.01222	1009.02389	43.40588	1076.76252	905.50827	33.64257	1054.71459	909.96987	72.62939	1062.37330	1101.72287	-498.74747	1033.34948	998.01495	-442.67575	1058.80057	997.29606	-495.28773	1169.58519	903.47568	-486.67377	1247.76574	838.73434	-447.23207	1219.70287	807.96661	-466.51648	1008.51558	870.76811	-118.70658	1002.89535	869.90184	-309.29399	1013.58455	872.04597	-126.38178	1023.23703	872.85072	-281.62968	
130	1.29000000	1175.95272	507.49960	-56.39122	1225.66958	473.24011	-64.78654	1216.35736	106.00841	-98.03082	1171.34161	61.03637	-151.66779	1369.62137	71.43867	-50.56715	1391.39018	106.68760	-102.69079	947.79769	486.34456	-372.88602	951.32559	395.76235	-383.10117	798.87602	107.40015	-338.46278	727.66631	76.47382	-290.49167	908.87370	39.59508	-359.89147	953.52207	54.87795	-305.61560	1242.33786	360.64035	-78.68696	1156.44211	456.94870	-31.43832	1172.30208	342.08151	-31.70118	870.02785	432.02855	-396.74600	828.70346	317.64428	-391.98776	1139.14956	805.15487	-110.01414	1189.80104	706.61519	-100.69328	1181.89187	681.48197	-36.44658	1078.43768	779.75687	-18.89262	1130.12605	678.00649	-11.65928	1058.01105	796.45639	-384.23372	1034.64109	658.03423	-389.66954	946.35880	815.01531	-392.64098	920.54978	680.75508	-376.77045	1091.40698	950.15196	-89.34564	906.03718	988.30425	-163.30980	1108.27537	930.40164	-323.84651	911.76196	989.08516	-261.08198	977.05140	1440.97342	-317.21947	1048.62068	1435.94014	-148.42355	1034.35180	1339.36095	-459.63344	1081.35751	1343.33623	-278.53642	1082.20536	1330.81669	-314.50766	1035.98631	1218.90705	-17.55646	960.79150	1136.19962	-15.92784	1005.25132	1139.92976	26.96168	1059.28816	1006.31559	43.47752	1084.39236	902.98445	32.99708	1062.03590	907.01061	71.86148	1070.69836	1102.92621	-498.09087	1040.80295	998.86445	-443.03647	1066.60901	998.53750	-495.47600	1176.77307	904.01272	-486.86544	1254.10506	838.42927	-447.40265	1226.29614	808.13571	-467.10587	1017.72384	869.58183	-118.89994	1011.81203	869.00745	-309.47981	1022.99829	870.63801	-126.35302	1032.09997	871.87900	-281.78710	
131	1.30000000	1184.79742	506.24838	-55.80197	1235.23574	473.58189	-64.26468	1239.67377	106.08834	-97.04786	1196.34481	59.81012	-150.58605	1394.25896	77.17180	-49.67204	1414.86103	113.14478	-101.59517	951.57842	486.48577	-373.43933	954.19747	395.85986	-383.74574	799.62869	108.44026	-338.81249	728.16232	78.17130	-290.80560	908.99912	39.59083	-360.10646	953.68156	54.49203	-305.84677	1256.02459	361.64082	-77.86890	1166.60235	454.86830	-30.67166	1186.74442	340.70141	-30.83015	873.10838	432.83548	-397.19961	830.89159	318.73893	-392.35383	1147.80124	803.13200	-110.13711	1198.32539	704.54359	-100.64114	1190.44266	679.64431	-36.29459	1087.52937	778.52906	-18.74848	1138.73249	676.57785	-11.29772	1065.59161	795.33578	-384.63962	1040.59027	657.26432	-389.94232	953.91027	815.40125	-392.93355	926.69529	681.16341	-376.83709	1100.99392	948.85074	-89.30135	915.45590	987.08499	-163.17016	1117.26231	929.44792	-324.10386	920.68063	988.23883	-261.03497	986.01302	1440.82218	-313.84718	1056.78608	1434.54214	-144.90146	1043.80717	1340.53833	-456.93833	1090.23483	1342.94248	-275.67239	1091.25434	1330.73848	-311.69367	1043.37643	1216.61596	-15.61423	968.32736	1133.70325	-15.37870	1012.40194	1137.18254	27.92156	1066.60265	1003.51665	43.67854	1092.20079	900.44517	32.46220	1069.42810	903.97143	71.18616	1078.98639	1104.09337	-497.31975	1048.19726	999.70467	-443.27540	1074.29570	999.76616	-495.53837	1183.69677	904.39485	-487.01631	1259.95324	837.74597	-447.57227	1232.51749	808.07006	-467.70683	1027.07908	868.35219	-119.08270	1020.83210	868.08577	-309.65241	1032.71439	869.07628	-126.26007	1041.02360	870.91009	-281.87745	
132	1.31000000	1193.67361	504.90814	-55.14972	1244.69833	473.71849	-63.65950	1261.98731	106.46532	-95.97845	1220.36318	58.91208	-149.46664	1417.69974	82.90196	-48.71897	1437.22043	119.68122	-100.54095	955.61012	486.60425	-373.95772	957.26316	395.91720	-384.35707	800.45738	109.54269	-339.19401	728.72803	79.97097	-291.15589	909.16356	39.57372	-360.32137	953.91326	54.12144	-306.07910	1269.29956	362.53334	-76.99717	1176.71407	452.77529	-29.81950	1200.81571	339.40327	-29.89007	876.42004	433.67050	-397.69691	833.26673	319.86903	-392.74338	1156.69901	801.06736	-110.34928	1207.03398	702.39301	-100.74584	1199.22064	677.71436	-36.28971	1096.92091	777.26784	-18.61998	1147.61012	675.12408	-10.99796	1073.30206	794.13703	-385.02752	1046.70554	656.44047	-390.21457	961.69696	815.59970	-393.18755	933.00741	681.49867	-376.88867	1110.78758	947.47785	-89.25330	925.06449	985.81889	-162.97892	1126.35509	928.43819	-324.34956	929.70597	987.39564	-260.94936	995.03794	1440.60743	-310.31428	1065.04697	1433.02114	-141.21195	1053.37056	1341.67712	-454.09687	1099.15613	1342.47458	-272.65934	1100.41545	1330.61122	-308.72705	1050.82201	1214.19793	-13.52878	975.97295	1131.10189	-14.68067	1019.62363	1134.32836	29.02252	1073.98171	1000.60505	44.01193	1100.15240	897.83472	32.05126	1076.89678	900.83065	70.62243	1087.25326	1105.20888	-496.42123	1055.56429	1000.50200	-443.35387	1081.87716	1000.96339	-495.46183	1190.37605	904.61447	-487.11348	1265.40382	836.73063	-447.74473	1238.38481	807.76437	-468.31999	1036.59555	867.06848	-119.25311	1029.95305	867.12999	-309.80910	1042.65521	867.41128	-126.13529	1050.03747	869.91767	-281.93143	
133	1.32000000	1202.60670	503.49615	-54.44527	1254.09037	473.65846	-62.97785	1283.27766	106.99055	-94.89250	1243.23237	58.30799	-148.31766	1439.83083	88.42732	-47.70302	1458.37268	126.05994	-99.54289	959.93833	486.67397	-374.43112	960.57298	395.90608	-384.92186	801.37844	110.69586	-339.60671	729.37801	81.87197	-291.54365	909.35455	39.53910	-360.53071	954.23252	53.76436	-306.30628	1282.16019	363.28186	-76.08380	1186.79478	450.70594	-28.90275	1214.47277	338.16976	-28.90421	880.02200	434.51379	-398.22618	835.86782	321.00892	-393.16827	1165.93667	799.02838	-110.64499	1215.94919	700.18524	-100.99741	1208.26033	675.73509	-36.42131	1106.62481	775.99241	-18.51995	1156.78977	673.67325	-10.76611	1081.14973	792.85697	-385.39357	1053.00063	655.54229	-390.48622	969.69806	815.51560	-393.31100	939.53188	681.73300	-376.94002	1120.79335	946.01966	-89.21077	934.85677	984.52894	-162.72209	1135.54144	927.36834	-324.60201	938.91412	986.51558	-260.78906	1004.14807	1440.31837	-306.61737	1073.41320	1431.36685	-137.35449	1063.05104	1342.76230	-451.10842	1108.13163	1341.92485	-269.49452	1109.69246	1330.42223	-305.61242	1058.35035	1211.62612	-11.32049	983.76017	1128.38589	-13.84793	1026.95541	1131.34842	30.24921	1081.45550	997.56352	44.47782	1108.19556	895.09177	31.77581	1084.45320	897.56842	70.18776	1095.51510	1106.25857	-495.38135	1062.92778	1001.22535	-443.22787	1089.37418	1002.11398	-495.23329	1196.83392	904.66217	-487.14596	1270.57615	835.44863	-447.92942	1243.91679	807.21486	-468.94582	1046.29085	865.72340	-119.40445	1039.17881	866.12893	-309.94221	1052.73112	865.70880	-126.00996	1059.18456	868.86780	-281.98006	
